<?xml version="1.0" encoding="utf-8"?>
<!-- Generated by IcoMoon.io -->
<!DOCTYPE svg PUBLIC "-//W3C//DTD SVG 1.1//EN" "http://www.w3.org/Graphics/SVG/1.1/DTD/svg11.dtd">
<svg version="1.1" xmlns="http://www.w3.org/2000/svg" xmlns:xlink="http://www.w3.org/1999/xlink" width="32" height="32" viewBox="0 0 32 32">
<path fill="#000" d="M21.2 18.8v2.667h-2.667v-2.667h2.667zM21.2 17.467h-2.667c-0.8 0-1.333 0.533-1.333 1.333v2.667c0 0.8 0.533 1.333 1.333 1.333h2.667c0.8 0 1.333-0.533 1.333-1.333v-2.667c0-0.8-0.533-1.333-1.333-1.333v0z"></path>
<path fill="#000" d="M25.2 8.133h-2.8v-1.467c0-0.8-0.533-1.333-1.333-1.333s-1.333 0.533-1.333 1.333v1.467h-8v-1.467c0-0.8-0.533-1.333-1.333-1.333s-1.333 0.533-1.333 1.333v1.467h-2.667c-0.8 0-1.333 0.533-1.333 1.333v16c0 0.8 0.533 1.333 1.333 1.333h18.667c0.8 0 1.333-0.533 1.333-1.333v-16c0.133-0.667-0.4-1.333-1.2-1.333zM25.2 25.467h-18.667v-11.867h18.667v11.867zM25.2 12.267h-18.667v-2.8h2.667c0 0.8 0.533 1.333 1.333 1.333s1.333-0.533 1.333-1.333v0h8c0 0.8 0.533 1.333 1.333 1.333s1.333-0.533 1.333-1.333v0h2.8v2.8z"></path>
</svg>
