<?xml version="1.0" encoding="utf-8"?>
<!-- Generated by IcoMoon.io -->
<!DOCTYPE svg PUBLIC "-//W3C//DTD SVG 1.1//EN" "http://www.w3.org/Graphics/SVG/1.1/DTD/svg11.dtd">
<svg version="1.1" xmlns="http://www.w3.org/2000/svg" xmlns:xlink="http://www.w3.org/1999/xlink" width="32" height="32" viewBox="0 0 32 32">
<path fill="#000" d="M26.667 9.333v13.333h-21.333v-13.333h21.333zM26.667 8h-21.333c-0.8 0-1.333 0.533-1.333 1.333v13.333c0 0.8 0.533 1.333 1.333 1.333h21.333c0.8 0 1.333-0.533 1.333-1.333v-13.333c0-0.8-0.533-1.333-1.333-1.333v0z"></path>
<path fill="#000" d="M20 12c2.267 0 4 1.733 4 4s-1.733 4-4 4-4-1.733-4-4 1.733-4 4-4zM20 10.667c-2.933 0-5.333 2.4-5.333 5.333s2.4 5.333 5.333 5.333 5.333-2.4 5.333-5.333-2.4-5.333-5.333-5.333v0z"></path>
<path fill="#000" d="M13.333 12c0 0.736-0.597 1.333-1.333 1.333s-1.333-0.597-1.333-1.333c0-0.736 0.597-1.333 1.333-1.333s1.333 0.597 1.333 1.333z"></path>
</svg>
