<?xml version="1.0" encoding="utf-8"?>
<!-- Generated by IcoMoon.io -->
<!DOCTYPE svg PUBLIC "-//W3C//DTD SVG 1.1//EN" "http://www.w3.org/Graphics/SVG/1.1/DTD/svg11.dtd">
<svg version="1.1" xmlns="http://www.w3.org/2000/svg" xmlns:xlink="http://www.w3.org/1999/xlink" width="32" height="32" viewBox="0 0 32 32">
<path fill="#000" d="M25.333 6.667v13.333h-14.667c-0.4 0-0.667 0.133-0.933 0.4l-3.067 3.067v-16.8h18.667zM25.333 5.333h-18.667c-0.8 0-1.333 0.533-1.333 1.333v13.333c0 0.8 0 6.667 0 6.667l5.333-5.333h14.667c0.8 0 1.333-0.533 1.333-1.333v-13.333c0-0.8-0.533-1.333-1.333-1.333v0z"></path>
<path fill="#000" d="M10.667 10h10.667v1.333h-10.667v-1.333z"></path>
<path fill="#000" d="M10.667 14h10.667v1.333h-10.667v-1.333z"></path>
</svg>
