<?xml version="1.0" encoding="utf-8"?>
<!-- Generated by IcoMoon.io -->
<!DOCTYPE svg PUBLIC "-//W3C//DTD SVG 1.1//EN" "http://www.w3.org/Graphics/SVG/1.1/DTD/svg11.dtd">
<svg version="1.1" xmlns="http://www.w3.org/2000/svg" xmlns:xlink="http://www.w3.org/1999/xlink" width="32" height="32" viewBox="0 0 32 32">
<path fill="#000" d="M16 4c6.667 0 12 5.333 12 12s-5.333 12-12 12-12-5.333-12-12 5.333-12 12-12zM16 2.667c-7.333 0-13.333 6-13.333 13.333s6 13.333 13.333 13.333 13.333-6 13.333-13.333-6-13.333-13.333-13.333v0z"></path>
<path fill="#000" d="M14.667 22.667c0-0.8 0.533-1.333 1.333-1.333s1.333 0.533 1.333 1.333c0 0.8-0.533 1.333-1.333 1.333s-1.333-0.533-1.333-1.333z"></path>
<path fill="#000" d="M15.2 20l-0.267-12h2.133l-0.267 12z"></path>
</svg>
