<?xml version="1.0" encoding="utf-8"?>
<!-- Generated by IcoMoon.io -->
<!DOCTYPE svg PUBLIC "-//W3C//DTD SVG 1.1//EN" "http://www.w3.org/Graphics/SVG/1.1/DTD/svg11.dtd">
<svg version="1.1" xmlns="http://www.w3.org/2000/svg" xmlns:xlink="http://www.w3.org/1999/xlink" width="32" height="32" viewBox="0 0 32 32">
<path fill="#000" d="M27.467 28h-22.933c-0.267 0-0.533-0.267-0.533-0.533v-22.8c0-0.4 0.267-0.667 0.533-0.667h22.8c0.4 0 0.667 0.267 0.667 0.667v22.8c0 0.267-0.267 0.533-0.533 0.533zM5.2 26.8h21.6v-21.6h-21.6v21.6zM22 13.867c-0.267 0-0.533-0.267-0.533-0.533v-2.667h-2.667c-0.267 0-0.533-0.267-0.533-0.533-0.133-0.4 0.133-0.8 0.4-0.8h3.333c0.4 0 0.667 0.4 0.667 0.667v3.333c0 0.267-0.267 0.533-0.667 0.533v0zM10 13.867c-0.4 0-0.667-0.267-0.667-0.533v-3.333c0-0.267 0.267-0.667 0.667-0.667h3.333c0.267 0 0.533 0.267 0.533 0.667 0 0.267-0.267 0.533-0.533 0.533h-2.667v2.667c-0.133 0.4-0.4 0.667-0.667 0.667v0zM13.333 22.667h-3.333c-0.4 0-0.667-0.267-0.667-0.667v-3.333c0-0.267 0.267-0.533 0.533-0.533s0.533 0.267 0.533 0.533v2.667h2.667c0.267 0 0.533 0.267 0.533 0.533s0 0.8-0.267 0.8v0zM22 22.667h-3.333c-0.267 0-0.533-0.267-0.533-0.533s0.267-0.533 0.533-0.533h2.667v-2.667c0-0.267 0.267-0.533 0.533-0.533s0.533 0.267 0.533 0.533v3.333c0.267 0.133 0 0.4-0.4 0.4v0z"></path>
</svg>
