<?xml version="1.0" encoding="utf-8"?>
<!-- Generated by IcoMoon.io -->
<!DOCTYPE svg PUBLIC "-//W3C//DTD SVG 1.1//EN" "http://www.w3.org/Graphics/SVG/1.1/DTD/svg11.dtd">
<svg version="1.1" xmlns="http://www.w3.org/2000/svg" xmlns:xlink="http://www.w3.org/1999/xlink" width="32" height="32" viewBox="0 0 32 32">
<path fill="#000" d="M21.467 6.667v0c2.667 0 5.2 1.6 5.2 4.667 0 4.533-7.067 10.933-10.667 13.6-3.6-2.8-10.667-9.2-10.667-13.6 0-3.2 2.667-4.667 5.067-4.667 2 0 3.6 0.933 4.533 2.4 0.267 0.4 0.667 0.667 1.2 0.667 0 0 0 0 0 0 0.533 0 0.933-0.267 1.2-0.8 0.667-1.333 2.267-2.267 4.133-2.267zM21.467 5.333c-2.267 0-4.4 1.067-5.467 3.2-1.2-2.133-3.467-3.2-5.6-3.2-3.2 0-6.4 2.133-6.4 6 0 6.667 12 15.333 12 15.333s12-8.667 12-15.333c0-3.867-3.333-6-6.533-6v0z"></path>
</svg>
