<?xml version="1.0" encoding="utf-8"?>
<!-- Generated by IcoMoon.io -->
<!DOCTYPE svg PUBLIC "-//W3C//DTD SVG 1.1//EN" "http://www.w3.org/Graphics/SVG/1.1/DTD/svg11.dtd">
<svg version="1.1" xmlns="http://www.w3.org/2000/svg" xmlns:xlink="http://www.w3.org/1999/xlink" width="32" height="32" viewBox="0 0 32 32">
<path fill="#000" d="M26.667 6.667h-4v-1.333c0-0.8-0.533-1.333-1.333-1.333h-16c-0.8 0-1.333 0.533-1.333 1.333v18.667c0 0.8 0.533 1.333 1.333 1.333h4v1.333c0 0.8 0.533 1.333 1.333 1.333h16c0.8 0 1.333-0.533 1.333-1.333v-18.667c0-0.8-0.533-1.333-1.333-1.333zM5.333 24v-18.667h16v18.667h-16zM26.667 26.667h-16v-1.333h10.667c0.8 0 1.333-0.533 1.333-1.333v-16h4v18.667z"></path>
<path fill="#000" d="M8 10h10.667v1.333h-10.667v-1.333z"></path>
<path fill="#000" d="M8 14h10.667v1.333h-10.667v-1.333z"></path>
<path fill="#000" d="M8 18h10.667v1.333h-10.667v-1.333z"></path>
</svg>
