<?xml version="1.0" encoding="utf-8"?>
<!-- Generated by IcoMoon.io -->
<!DOCTYPE svg PUBLIC "-//W3C//DTD SVG 1.1//EN" "http://www.w3.org/Graphics/SVG/1.1/DTD/svg11.dtd">
<svg version="1.1" xmlns="http://www.w3.org/2000/svg" xmlns:xlink="http://www.w3.org/1999/xlink" width="32" height="32" viewBox="0 0 32 32">
<path fill="#000" d="M22.667 5.333c1.067 0 2 0.4 2.8 1.2s1.2 1.733 1.2 2.8v13.333c0 1.067-0.4 2-1.2 2.8s-1.733 1.2-2.8 1.2h-13.333c-1.067 0-2-0.4-2.8-1.2s-1.2-1.733-1.2-2.8v-13.333c0-1.067 0.4-2 1.2-2.8s1.733-1.2 2.8-1.2h13.333zM15.067 16c0-0.8-0.267-1.467-0.933-2.133s-1.2-0.8-2.133-0.8c-0.8 0-1.467 0.267-2 0.933-0.533 0.533-0.933 1.2-0.933 2.133 0 0.8 0.267 1.467 0.933 2.133 0.533 0.4 1.333 0.667 2 0.667 0.8 0 1.467-0.267 2.133-0.933 0.533-0.533 0.933-1.2 0.933-2zM22.933 16c0-0.8-0.267-1.467-0.933-2.133-0.533-0.533-1.333-0.8-2-0.8-0.8 0-1.467 0.267-2.133 0.933-0.533 0.533-0.933 1.2-0.933 2.133 0 0.8 0.267 1.467 0.933 2.133 0.533 0.533 1.2 0.933 2.133 0.933 0.8 0 1.467-0.267 2-0.933 0.533-0.8 0.933-1.467 0.933-2.267z"></path>
</svg>
