<?xml version="1.0" encoding="utf-8"?>
<!-- Generated by IcoMoon.io -->
<!DOCTYPE svg PUBLIC "-//W3C//DTD SVG 1.1//EN" "http://www.w3.org/Graphics/SVG/1.1/DTD/svg11.dtd">
<svg version="1.1" xmlns="http://www.w3.org/2000/svg" xmlns:xlink="http://www.w3.org/1999/xlink" width="32" height="32" viewBox="0 0 32 32">
<path fill="#000" d="M16.533 22.533c0-0.133 0-0.4-0.133-0.533 0-0.133 0-0.267-0.133-0.4 0-0.133-0.133-0.267-0.267-0.4s-0.267-0.267-0.267-0.4c-0.133-0.133-0.267-0.267-0.4-0.4s-0.267-0.267-0.4-0.4c-0.133 0-0.267-0.133-0.4-0.267s-0.267-0.267-0.4-0.267c0-0.133-0.267-0.133-0.4-0.267-0.267-0.133-0.4-0.267-0.4-0.267-0.133 0-0.4 0-0.667 0-0.533 0-0.933 0-1.333 0.133s-0.933 0.133-1.333 0.4c-0.533 0.133-0.933 0.267-1.2 0.533-0.133 0-0.533 0.267-0.8 0.667s-0.4 0.8-0.4 1.333c0 0.533 0.133 1.067 0.4 1.467 0.267 0.533 0.667 0.8 1.2 1.067s0.933 0.533 1.467 0.533c0.533 0.133 1.067 0.267 1.6 0.267s0.933 0 1.467-0.133c0.4-0.133 0.8-0.267 1.2-0.533s0.667-0.533 0.933-0.933c0.533-0.267 0.667-0.667 0.667-1.2v0zM15.067 11.333c0-0.533 0-1.067-0.133-1.6s-0.4-1.067-0.667-1.6c-0.267-0.533-0.667-0.933-1.067-1.333-0.533-0.4-1.067-0.533-1.6-0.533-0.8 0-1.333 0.267-1.867 0.933s-0.667 1.333-0.667 2.133c0 0.4 0 0.8 0.133 1.2s0.267 0.933 0.4 1.333c0.133 0.4 0.4 0.8 0.667 1.2s0.533 0.667 0.933 0.8c0.4 0.267 0.8 0.267 1.2 0.267 0.8 0 1.467-0.267 1.733-0.8 0.667-0.4 0.933-1.067 0.933-2v0zM13.333 5.333h5.6l-1.733 0.933h-1.733c0.533 0.4 1.067 0.933 1.333 1.6 0.4 0.8 0.533 1.467 0.533 2.267 0 0.667-0.133 1.2-0.267 1.733-0.267 0.533-0.4 0.933-0.667 1.2s-0.533 0.533-0.8 0.8c-0.267 0.267-0.533 0.533-0.667 0.8-0.267 0.267-0.267 0.533-0.267 0.933 0 0.267 0.133 0.4 0.267 0.667s0.267 0.4 0.533 0.667c0.267 0.133 0.533 0.4 0.8 0.667 0.267 0.133 0.533 0.4 0.8 0.667s0.533 0.533 0.8 0.8c0.267 0.267 0.4 0.667 0.533 1.067s0.267 0.8 0.267 1.333c0 1.333-0.533 2.533-1.733 3.6-1.333 1.067-3.067 1.6-5.333 1.6-0.533 0-1.067 0-1.467-0.133-0.533-0.133-1.067-0.267-1.6-0.4-0.533-0.267-0.933-0.4-1.333-0.8s-0.667-0.667-0.933-1.067c-0.8-0.533-0.933-1.067-0.933-1.6s0.133-1.067 0.533-1.733c0.267-0.533 0.667-0.933 1.2-1.333s1.2-0.667 1.867-0.933c0.667-0.133 1.333-0.4 2-0.4 0.667-0.133 1.2-0.133 1.867-0.133-0.533-0.667-0.8-1.333-0.8-1.867 0-0.133 0-0.267 0-0.267 0-0.133 0-0.133 0.133-0.267 0 0 0-0.133 0.133-0.267 0-0.133 0-0.133 0.133-0.267-0.4 0-0.667 0.133-0.933 0.133-1.333 0-2.4-0.4-3.333-1.2-0.933-1.2-1.467-2.267-1.467-3.6 0-1.067 0.4-2.133 1.333-3.2 0.8-0.933 1.733-1.6 2.933-1.867 0.8-0.133 1.6-0.133 2.4-0.133v0zM26.667 8.667v1.6h-3.333v3.333h-1.6v-3.333h-3.333v-1.6h3.333v-3.333h1.6v3.333h3.333z"></path>
</svg>
