<?xml version="1.0" encoding="utf-8"?>
<!-- Generated by IcoMoon.io -->
<!DOCTYPE svg PUBLIC "-//W3C//DTD SVG 1.1//EN" "http://www.w3.org/Graphics/SVG/1.1/DTD/svg11.dtd">
<svg version="1.1" xmlns="http://www.w3.org/2000/svg" xmlns:xlink="http://www.w3.org/1999/xlink" width="32" height="32" viewBox="0 0 32 32">
<path fill="#000" d="M15.6 12.8c0.8 0 1.467 0.533 1.467 1.333v2.8h1.467v-2.8c0-1.467-1.333-2.667-2.933-2.667v0h-8.8c-1.6 0-2.933 1.2-2.933 2.667v5.333c0 1.467 1.333 2.667 2.933 2.667h5.867v-1.333h-5.867c-0.8 0-1.467-0.533-1.467-1.333v-5.333c0-0.8 0.667-1.333 1.467-1.333h8.8z"></path>
<path fill="#000" d="M16.133 19.467c-0.8 0-1.467-0.533-1.467-1.333v-2.8h-1.467v2.8c0 1.467 1.333 2.667 2.933 2.667v0h8.8c1.6 0 2.933-1.2 2.933-2.667v-5.333c0-1.467-1.333-2.667-2.933-2.667h-5.867v1.333h5.867c0.8 0 1.467 0.533 1.467 1.333v5.333c0 0.8-0.667 1.333-1.467 1.333h-8.8z"></path>
</svg>
