<?xml version="1.0" encoding="utf-8"?>
<!-- Generated by IcoMoon.io -->
<!DOCTYPE svg PUBLIC "-//W3C//DTD SVG 1.1//EN" "http://www.w3.org/Graphics/SVG/1.1/DTD/svg11.dtd">
<svg version="1.1" xmlns="http://www.w3.org/2000/svg" xmlns:xlink="http://www.w3.org/1999/xlink" width="32" height="32" viewBox="0 0 32 32">
<path fill="#000" d="M26.667 6.667h-4v-1.333c0-0.8-0.533-1.333-1.333-1.333h-16c-0.8 0-1.333 0.533-1.333 1.333v18.667c0 0.8 0.533 1.333 1.333 1.333h4v1.333c0 0.8 0.533 1.333 1.333 1.333h16c0.8 0 1.333-0.533 1.333-1.333v-18.667c0-0.8-0.533-1.333-1.333-1.333zM5.333 24v-18.667h16v18.667h-16zM26.667 26.667h-16v-1.333h10.667c0.8 0 1.333-0.533 1.333-1.333v-16h4v18.667z"></path>
<path fill="#000" d="M8.533 14.933h-0.933v1.733h-1.067v-5.867h2.133c1.333 0 2 0.667 2 2 0 0.667-0.133 1.2-0.533 1.6s-0.933 0.533-1.6 0.533zM7.6 13.867h0.933c0.533 0 0.933-0.4 0.933-1.067 0-0.4-0.133-0.667-0.267-0.8-0.133 0-0.267-0.133-0.667-0.133h-0.933v2z"></path>
<path fill="#000" d="M13.333 16.533h-1.867v-5.733h1.867c0.533 0 0.933 0 1.2 0.133s0.533 0.267 0.8 0.533c0.133 0.267 0.267 0.533 0.4 0.8s0.133 0.8 0.133 1.2 0 0.933-0.133 1.333c0 0.4-0.133 0.667-0.4 0.933-0.133 0.267-0.4 0.4-0.8 0.533-0.267 0.267-0.667 0.267-1.2 0.267zM14.533 14.267c0-0.133 0-0.4 0-0.8s0-0.533 0-0.8c0-0.133-0.133-0.4-0.133-0.533 0 0-0.133-0.133-0.4-0.133-0.133 0-0.4-0.133-0.667-0.133h-0.667v3.733h0.667c0.4 0 0.667-0.133 0.933-0.267 0.133-0.267 0.267-0.533 0.267-1.067z"></path>
<path fill="#000" d="M16.8 16.533v-5.733h3.6v1.067h-2.533v1.733h2.133v1.067h-2v2h-1.2z"></path>
</svg>
