<?xml version="1.0" encoding="utf-8"?>
<!-- Generated by IcoMoon.io -->
<!DOCTYPE svg PUBLIC "-//W3C//DTD SVG 1.1//EN" "http://www.w3.org/Graphics/SVG/1.1/DTD/svg11.dtd">
<svg version="1.1" xmlns="http://www.w3.org/2000/svg" xmlns:xlink="http://www.w3.org/1999/xlink" width="32" height="32" viewBox="0 0 32 32">
<path fill="#000" d="M10.533 24.667c0 0.933-0.4 1.733-0.933 2.267-0.667 0.8-1.467 1.067-2.267 1.067-0.933 0-1.733-0.267-2.267-0.933s-1.067-1.467-1.067-2.4 0.267-1.733 0.933-2.267 1.333-0.933 2.267-0.933c0.933 0 1.733 0.267 2.267 0.933 0.667 0.667 1.067 1.467 1.067 2.267zM19.333 26.8c0 0.267 0 0.533-0.267 0.8-0.133 0.267-0.533 0.4-0.8 0.4h-2.267c-0.267 0-0.533-0.133-0.667-0.267-0.267-0.133-0.4-0.4-0.4-0.667-0.267-2.533-1.333-4.8-3.2-6.667s-4-2.8-6.667-3.067c-0.267 0-0.533-0.133-0.667-0.4-0.4-0.267-0.4-0.533-0.4-0.8v-2.267c0-0.267 0.133-0.533 0.4-0.8 0.133-0.267 0.4-0.267 0.667-0.267h0.133c1.733 0.133 3.467 0.533 5.2 1.333s3.067 1.733 4.4 3.067c1.333 1.2 2.267 2.8 3.067 4.4s1.2 3.467 1.467 5.2v0zM28 26.933c0 0.267 0 0.533-0.267 0.8-0.133 0.267-0.533 0.4-0.8 0.4h-2.4c-0.267 0-0.533-0.133-0.8-0.267-0.133-0.133-0.267-0.533-0.267-0.667-0.133-2.4-0.667-4.8-1.733-6.933-1.067-2.267-2.267-4.133-4-5.733-1.6-1.6-3.467-2.933-5.733-4s-4.533-1.867-6.933-1.867c-0.267 0-0.533-0.133-0.667-0.4-0.267-0.267-0.4-0.533-0.4-0.8v-2.4c0-0.267 0.133-0.533 0.4-0.8 0.133-0.267 0.4-0.267 0.667-0.267v0c2.933 0.133 5.867 0.8 8.533 2 2.8 1.2 5.2 2.8 7.333 5.067 2.133 2.133 3.733 4.533 5.067 7.2 1.2 2.8 1.867 5.6 2 8.667v0z"></path>
</svg>
