<?xml version="1.0" encoding="utf-8"?>
<!-- Generated by IcoMoon.io -->
<!DOCTYPE svg PUBLIC "-//W3C//DTD SVG 1.1//EN" "http://www.w3.org/Graphics/SVG/1.1/DTD/svg11.dtd">
<svg version="1.1" xmlns="http://www.w3.org/2000/svg" xmlns:xlink="http://www.w3.org/1999/xlink" width="32" height="32" viewBox="0 0 32 32">
<path fill="#000" d="M18.133 4l0.4 2.933 0.133 0.8 0.667 0.267c0.667 0.267 1.333 0.667 2 1.067l0.667 0.4 0.533-0.133 2.8-1.2 2.133 3.6-2.4 1.867-0.533 0.4 0.133 0.8c0 0.4 0.133 0.8 0.133 1.2s0 0.667-0.133 1.2l-0.133 0.8 0.533 0.4 2.4 1.867-2.133 3.6-2.8-1.2-0.667-0.267-0.533 0.4c-0.667 0.533-1.333 0.933-2 1.2l-0.667 0.267-0.133 0.8-0.4 2.933h-4.133l-0.4-2.933-0.267-0.8-0.667-0.267c-0.667-0.267-1.333-0.667-2-1.067l-0.667-0.4-0.533 0.133-2.8 1.2-2.133-3.6 2.4-1.867 0.533-0.4-0.133-0.8c0-0.4-0.133-0.8-0.133-1.2s0-0.667 0.133-1.2l0.133-0.8-0.533-0.4-2.4-1.733 2.133-3.733 2.8 1.2 0.667 0.267 0.533-0.533c0.667-0.4 1.333-0.8 2-1.067l0.667-0.267 0.133-0.8 0.4-2.933h4.267zM16 22c3.333 0 6-2.667 6-6s-2.667-6-6-6-6 2.667-6 6 2.667 6 6 6zM18.667 2.667h-5.333c-0.267 0-0.667 0.267-0.667 0.533l-0.533 3.6c-0.8 0.267-1.467 0.8-2.267 1.333l-3.2-1.333c-0.133-0.133-0.267-0.133-0.267-0.133-0.267 0-0.533 0.133-0.667 0.4l-2.667 4.667c-0.133 0.133 0 0.533 0.267 0.8l2.8 2.133c0 0.4-0.133 0.8-0.133 1.333s0 0.933 0.133 1.333l-2.8 2.267c-0.267 0.133-0.267 0.533-0.133 0.8l2.667 4.667c0 0.133 0.267 0.267 0.533 0.267 0.133 0 0.133 0 0.267 0l3.333-1.333c0.667 0.533 1.467 0.933 2.267 1.333l0.533 3.467c0 0.267 0.267 0.533 0.667 0.533h5.333c0.267 0 0.667-0.267 0.667-0.533l0.533-3.467c0.8-0.267 1.6-0.8 2.267-1.333l3.333 1.333c0.133 0 0.133 0 0.267 0 0.267 0 0.4-0.133 0.533-0.4l2.667-4.667c0.133-0.267 0.133-0.667-0.133-0.8l-3.067-2.133c0-0.4 0.133-0.8 0.133-1.333s0-0.933-0.133-1.333l2.8-2.267c0.267-0.133 0.267-0.533 0.133-0.8l-2.667-4.667c0-0.133-0.267-0.267-0.533-0.267-0.133 0-0.133 0-0.267 0l-3.333 1.333c-0.667-0.533-1.467-0.933-2.267-1.333l-0.533-3.6c0.133-0.133-0.133-0.4-0.533-0.4v0zM16 20.667c-2.533 0-4.667-2.133-4.667-4.667s2.133-4.667 4.667-4.667 4.667 2.133 4.667 4.667-2.133 4.667-4.667 4.667v0z"></path>
</svg>
