<?xml version="1.0" encoding="utf-8"?>
<!-- Generated by IcoMoon.io -->
<!DOCTYPE svg PUBLIC "-//W3C//DTD SVG 1.1//EN" "http://www.w3.org/Graphics/SVG/1.1/DTD/svg11.dtd">
<svg version="1.1" xmlns="http://www.w3.org/2000/svg" xmlns:xlink="http://www.w3.org/1999/xlink" width="32" height="32" viewBox="0 0 32 32">
<path fill="#000" d="M6.267 5.333v10.267c-0.267-0.133-0.667-0.4-0.933-0.133s0.133 0.533 0.133 0.8c1.333 1.333 2.8 2.267 4.4 2.933-0.4 1.067-0.533 2.267-0.4 3.467 0.267 2 1.6 4 3.733 4 1.067 0 2.133-0.667 2.133-1.867v-4.533c0.267 0 0.533 0.133 0.8 0.267v4.133c0 0.267 0 0.533 0.133 0.8 0.4 0.667 1.2 1.067 2 1.067 2.267-0.133 3.467-2 3.733-4 0.133-1.2 0-2.4-0.4-3.467 1.467-0.667 4.267-1.867 4.667-3.6 0-0.267-0.133-0.267-0.4-0.267s-0.533 0.133-0.667 0.267v-10.133h-18.933zM7.467 6.4h17.067v9.867c-0.267 0.133-0.533 0.267-0.8 0.4l-15.2 0.267c-0.4-0.133-0.8-0.4-1.067-0.533v-10zM13.067 11.6c-1.467 0-2.533 1.067-2.533 2.533 0 1.333 1.067 2.533 2.533 2.533 1.333 0 2.533-1.2 2.533-2.533s-1.067-2.533-2.533-2.533zM19.067 11.6c-1.333 0-2.533 1.067-2.533 2.533 0 1.333 1.2 2.533 2.533 2.533 1.467 0 2.533-1.2 2.533-2.533s-1.067-2.533-2.533-2.533z"></path>
</svg>
