<?xml version="1.0" encoding="utf-8"?>
<!-- Generated by IcoMoon.io -->
<!DOCTYPE svg PUBLIC "-//W3C//DTD SVG 1.1//EN" "http://www.w3.org/Graphics/SVG/1.1/DTD/svg11.dtd">
<svg version="1.1" xmlns="http://www.w3.org/2000/svg" xmlns:xlink="http://www.w3.org/1999/xlink" width="32" height="32" viewBox="0 0 32 32">
<path fill="#000" d="M28 8.667c-0.667 0.933-1.467 1.733-2.533 2.533v0.667c0 2.267-0.533 4.4-1.467 6.533-1.067 2.133-2.667 3.867-4.933 5.333-2.133 1.467-4.667 2.133-7.467 2.133s-5.333-0.667-7.6-2.133c0.267 0 0.667 0 1.2 0 2.267 0 4.267-0.667 6.133-2-1.067 0-2-0.4-2.8-1.067s-1.467-1.467-1.733-2.4c0.133 0 0.4 0.133 0.8 0.133s0.933 0 1.333-0.133c-1.2-0.267-2.133-0.8-2.8-1.733-0.8-1.2-1.067-2.133-1.067-3.333v0c0.667 0.267 1.333 0.533 2.133 0.667-1.467-1.2-2.133-2.533-2.133-4.267 0-0.8 0.267-1.6 0.667-2.4 2.667 3.2 6 4.933 10.133 5.067-0.133-0.267-0.133-0.667-0.133-1.067 0-1.333 0.4-2.533 1.467-3.467 0.933-0.933 2.133-1.467 3.467-1.467 1.467 0 2.533 0.4 3.6 1.467 1.067-0.267 2.133-0.533 3.067-1.067-0.4 1.067-1.067 2-2.133 2.667 0.933-0.133 1.867-0.4 2.8-0.667z"></path>
</svg>
