<?xml version="1.0" encoding="utf-8"?>
<!-- Generated by IcoMoon.io -->
<!DOCTYPE svg PUBLIC "-//W3C//DTD SVG 1.1//EN" "http://www.w3.org/Graphics/SVG/1.1/DTD/svg11.dtd">
<svg version="1.1" xmlns="http://www.w3.org/2000/svg" xmlns:xlink="http://www.w3.org/1999/xlink" width="32" height="32" viewBox="0 0 32 32">
<path fill="#000" d="M27.333 9.067c-0.133-0.133-0.4-0.133-0.533-0.133-0.267 0-0.533 0.133-0.8 0.267l-3.333 2.667v-2.533c0-0.8-0.533-1.333-1.333-1.333h-16c-0.8 0-1.333 0.533-1.333 1.333v13.333c0 0.8 0.533 1.333 1.333 1.333h16c0.8 0 1.333-0.533 1.333-1.333v-2.267l3.333 2.667c0.267 0.133 0.533 0.267 0.8 0.267 0.133 0 0.4 0 0.533-0.133 0.4-0.267 0.667-0.667 0.667-1.067v-12c0-0.4-0.267-0.933-0.667-1.067zM21.333 22.667h-16v-13.333h16v13.333zM26.8 22l-4.133-3.2v-5.333l4.133-3.467v12z"></path>
</svg>
