<?xml version="1.0" encoding="utf-8"?>
<!-- Generated by IcoMoon.io -->
<!DOCTYPE svg PUBLIC "-//W3C//DTD SVG 1.1//EN" "http://www.w3.org/Graphics/SVG/1.1/DTD/svg11.dtd">
<svg version="1.1" xmlns="http://www.w3.org/2000/svg" xmlns:xlink="http://www.w3.org/1999/xlink" width="32" height="32" viewBox="0 0 32 32">
<path fill="#000" d="M19.333 17.2c0.133 0 0.667 0.267 1.467 0.667 0.933 0.4 1.333 0.667 1.333 0.8 0 0 0 0.133 0 0.267 0 0.4-0.133 0.8-0.267 1.2s-0.533 0.8-1.067 1.067c-0.533 0.267-1.067 0.4-1.6 0.4s-1.6-0.267-2.933-0.933c-0.933-0.533-1.867-1.067-2.667-1.867s-1.467-1.733-2.267-2.933c-0.667-1.067-0.933-2.133-0.933-2.933v-0.133c0-0.933 0.4-1.733 1.2-2.4 0.133-0.267 0.4-0.4 0.667-0.4 0 0 0.133 0 0.267 0s0.267 0 0.267 0 0.267 0 0.4 0.133c0.133 0 0.133 0.133 0.267 0.4 0 0.267 0.267 0.667 0.533 1.467 0.267 0.667 0.4 1.067 0.4 1.2 0 0.267-0.133 0.533-0.533 0.933-0.267 0.133-0.533 0.4-0.533 0.533 0 0 0 0.133 0 0.267 0.4 0.8 0.933 1.467 1.6 2.133 0.533 0.533 1.333 1.067 2.4 1.6 0.133 0 0.267 0.133 0.4 0.133s0.4-0.267 0.8-0.8c0.4-0.533 0.667-0.8 0.8-0.8v0zM16.267 25.467c1.333 0 2.533-0.267 3.867-0.8 1.2-0.533 2.267-1.2 3.067-2s1.6-1.867 2-3.067c0.533-1.2 0.8-2.533 0.8-3.867s-0.267-2.533-0.8-3.733c-0.533-1.333-1.2-2.4-2.133-3.2s-1.867-1.6-3.067-2.133c-1.2-0.533-2.533-0.8-3.867-0.8s-2.533 0.4-3.733 0.8c-1.2 0.533-2.267 1.2-3.067 2.133s-1.6 1.867-2.133 3.067c-0.533 1.2-0.667 2.533-0.667 3.867 0 2.133 0.533 4 1.867 5.733l-1.2 3.6 3.733-1.2c1.6 1.067 3.333 1.6 5.333 1.6zM16.267 4c1.6 0 3.067 0.267 4.533 0.933 1.467 0.533 2.667 1.467 3.733 2.533s1.867 2.267 2.533 3.733c0.667 1.467 0.933 2.933 0.933 4.533s-0.267 3.067-0.933 4.533c-0.533 1.467-1.467 2.667-2.533 3.733s-2.267 1.867-3.733 2.533c-1.467 0.533-2.933 0.933-4.533 0.933-2 0-3.867-0.533-5.6-1.467l-6.533 2 2-6.267c-1.067-1.733-1.6-3.867-1.6-6 0-1.6 0.267-3.067 0.933-4.533 0.533-1.467 1.467-2.667 2.533-3.733s2.267-1.867 3.733-2.533c1.333-0.667 2.933-0.933 4.533-0.933z"></path>
</svg>
