<?xml version="1.0" encoding="utf-8"?>
<!-- Generated by IcoMoon.io -->
<!DOCTYPE svg PUBLIC "-//W3C//DTD SVG 1.1//EN" "http://www.w3.org/Graphics/SVG/1.1/DTD/svg11.dtd">
<svg version="1.1" xmlns="http://www.w3.org/2000/svg" xmlns:xlink="http://www.w3.org/1999/xlink" width="32" height="32" viewBox="0 0 32 32">
<path fill="#000" d="M19.067 21.2v3.2c0 0.667-0.267 1.067-0.533 1.067s-0.533-0.133-0.667-0.267v-4.533c0.267-0.267 0.4-0.4 0.667-0.4 0.4 0 0.533 0.4 0.533 0.933v0zM24.267 21.333v0.667h-1.333v-0.667c0-0.667 0.267-1.067 0.667-1.067s0.667 0.4 0.667 1.067v0zM9.467 18h1.6v-1.333h-4.667v1.333h1.6v8.667h1.6v-8.667zM13.867 26.667h1.333v-7.467h-1.333v5.733c-0.267 0.4-0.533 0.667-0.8 0.667s-0.267-0.133-0.267-0.267c0 0 0-0.267 0-0.533v-5.467h-1.333v6c0 0.533 0 0.8 0.133 1.067 0.133 0.4 0.4 0.533 0.933 0.533s1.067-0.267 1.6-0.933v0.667zM20.4 24.4v-3.067c0-0.667 0-1.2-0.133-1.467-0.133-0.533-0.533-0.8-1.067-0.8s-1.067 0.267-1.467 0.8v-3.333h-1.333v10.133h1.333v-0.8c0.533 0.533 0.933 0.8 1.467 0.8s0.933-0.267 1.067-0.8c0.133-0.267 0.133-0.667 0.133-1.467zM25.6 24.267v-0.267h-1.333c0 0.533 0 0.8 0 0.933 0 0.267-0.267 0.533-0.533 0.533-0.533 0-0.667-0.4-0.667-1.067v-1.333h2.667v-1.6c0-0.8-0.133-1.333-0.4-1.733-0.4-0.533-0.933-0.8-1.6-0.8s-1.2 0.267-1.6 0.8c-0.267 0.4-0.4 0.933-0.4 1.733v2.667c0 0.8 0.133 1.333 0.533 1.733 0.4 0.533 0.933 0.8 1.6 0.8s1.333-0.267 1.6-0.8c0.267-0.267 0.267-0.533 0.267-0.8-0.133 0-0.133-0.4-0.133-0.8zM16.267 10.4v-3.2c0-0.667-0.267-1.067-0.667-1.067s-0.667 0.4-0.667 1.067v3.2c0 0.667 0.267 1.067 0.667 1.067 0.533 0 0.667-0.4 0.667-1.067zM27.333 21.733c0 2.4-0.133 4.133-0.4 5.333-0.133 0.533-0.4 1.067-0.8 1.467-0.533 0.4-0.933 0.667-1.6 0.667-1.867 0.267-4.667 0.267-8.533 0.267s-6.667 0-8.533-0.133c-0.533 0-1.067-0.267-1.6-0.667-0.4-0.4-0.8-0.933-0.8-1.467-0.267-1.2-0.4-2.933-0.4-5.333s0.133-4.133 0.4-5.333c0.133-0.667 0.4-1.067 0.8-1.6 0.533-0.4 0.933-0.667 1.6-0.667 1.867-0.267 4.667-0.267 8.4-0.267s6.667 0.133 8.533 0.267c0.533 0 1.067 0.267 1.6 0.667 0.4 0.4 0.8 0.933 0.8 1.6 0.4 1.067 0.533 2.8 0.533 5.2v0zM12.133 2.4h1.6l-2 6v4.133h-1.467v-4.133c-0.133-0.667-0.4-1.733-0.933-3.2-0.4-1.067-0.667-2-0.933-2.8h1.6l1.067 4 1.067-4zM17.733 7.467v2.667c0 0.8-0.133 1.467-0.4 1.867-0.4 0.533-0.933 0.8-1.6 0.8s-1.2-0.267-1.6-0.8c-0.267-0.4-0.4-1.067-0.4-1.867v-2.667c0-0.8 0.133-1.333 0.4-1.733 0.4-0.533 0.933-0.8 1.6-0.8s1.2 0.267 1.6 0.8c0.267 0.267 0.4 0.933 0.4 1.733zM22.8 4.933v7.6h-1.333v-0.8c-0.533 0.667-1.067 0.933-1.6 0.933s-0.8-0.133-0.933-0.533c-0.133-0.267-0.133-0.667-0.133-1.2v-6h1.333v5.6c0 0.267 0 0.533 0 0.533 0 0.267 0.133 0.267 0.267 0.267 0.267 0 0.533-0.267 0.8-0.667v-5.733h1.6z"></path>
</svg>
