<?xml version="1.0" encoding="utf-8"?>
<!-- Generated by IcoMoon.io -->
<!DOCTYPE svg PUBLIC "-//W3C//DTD SVG 1.1//EN" "http://www.w3.org/Graphics/SVG/1.1/DTD/svg11.dtd">
<svg version="1.1" xmlns="http://www.w3.org/2000/svg" xmlns:xlink="http://www.w3.org/1999/xlink" width="32" height="32" viewBox="0 0 32 32">
<path fill="#000" d="M27.867 26.933l-7.467-7.467c1.467-1.6 2.267-3.733 2.267-6.133 0-5.2-4.133-9.333-9.333-9.333s-9.333 4.133-9.333 9.333c0 5.2 4.133 9.333 9.333 9.333 2.4 0 4.533-0.933 6.133-2.267l7.467 7.467 0.933-0.933zM13.467 21.467c-4.4 0-8-3.6-8-8s3.6-8 8-8 8 3.6 8 8-3.6 8-8 8z"></path>
<path fill="#000" d="M9.333 12.667h8v1.333h-8v-1.333z"></path>
</svg>
